<?xml version="1.0" encoding="utf-8"?>
<!-- Generator: Adobe Illustrator 26.2.1, SVG Export Plug-In . SVG Version: 6.00 Build 0)  -->
<svg version="1.1" id="Layer_1" xmlns="http://www.w3.org/2000/svg" xmlns:xlink="http://www.w3.org/1999/xlink" x="0px" y="0px"
	 viewBox="0 0 300 300" style="enable-background:new 0 0 300 300;" xml:space="preserve">
<style type="text/css">
	.st0{fill:none;}
	.st1{fill-rule:evenodd;clip-rule:evenodd;fill:url(#SVGID_1_);}
	.st2{fill-rule:evenodd;clip-rule:evenodd;fill:url(#SVGID_00000141457945694161957740000004600371991137189781_);}
	.st3{fill:url(#SVGID_00000018940897800365337470000001821819534344627380_);}
	.st4{fill:#6D4AFF;}
	.st5{fill:#1B1340;}
</style>
<g>
	<rect id="bitdefender-vertical" x="13.5" y="13.5" class="st0" width="273" height="273"/>
	<g>
		
			<linearGradient id="SVGID_1_" gradientUnits="userSpaceOnUse" x1="148.1212" y1="382.52" x2="153.2391" y2="556.5393" gradientTransform="matrix(1 0 0 1 0 -390)">
			<stop  offset="0.7401" style="stop-color:#6D4AFF"/>
			<stop  offset="1" style="stop-color:#000000"/>
		</linearGradient>
		<path class="st1" d="M139.1,166.4c4.6,8.2,16.4,9.1,21.8,0.9l49.1-75.5c5.5-8.2,0-19.1-9.1-20l-97.4-10.9
			c-10-0.9-18.2,10-12.7,19.1L139.1,166.4z"/>
		
			<linearGradient id="SVGID_00000050647752564659503160000007510841422737767348_" gradientUnits="userSpaceOnUse" x1="165.8699" y1="403.8228" x2="131.0724" y2="553.636" gradientTransform="matrix(1 0 0 1 0 -390)">
			<stop  offset="0.4799" style="stop-color:#24ECC6;stop-opacity:0"/>
			<stop  offset="0.9944" style="stop-color:#24ECC6"/>
		</linearGradient>
		<path style="fill-rule:evenodd;clip-rule:evenodd;fill:url(#SVGID_00000050647752564659503160000007510841422737767348_);" d="
			M139.1,166.4c4.6,8.2,16.4,9.1,21.8,0.9l49.1-75.5c5.5-8.2,0-19.1-9.1-20l-97.4-10.9c-10-0.9-18.2,10-12.7,19.1L139.1,166.4z"/>
		
			<linearGradient id="SVGID_00000181076578664410563060000011708597858030809489_" gradientUnits="userSpaceOnUse" x1="197.7794" y1="551.5868" x2="120.6268" y2="419.6568" gradientTransform="matrix(1 0 0 1 0 -390)">
			<stop  offset="6.601250e-02" style="stop-color:#ABFFEF"/>
			<stop  offset="0.4499" style="stop-color:#CAC9FF"/>
			<stop  offset="1" style="stop-color:#6D4AFF"/>
		</linearGradient>
		<path style="fill:url(#SVGID_00000181076578664410563060000011708597858030809489_);" d="M146.4,151.8l-4.6,6.4
			c-1.8,2.7-5.5,2.7-7.3,0l4.5,8.2c0.9,1.8,1.8,2.7,2.7,3.6l0,0c5.5,4.6,14.6,3.6,19.1-2.7l49.1-75.5c5.5-8.2,0-19.1-9.1-20
			l-97.4-10.9c-10-0.9-18.2,10-12.7,19.1v0.9l82.8,10c5.5,0.9,8.2,6.4,5.5,10.9L146.4,151.8z"/>
	</g>
	<g>
		<path class="st4" d="M235.5,198.2h-18.2v39.1h7.3v-10c0-0.9,0-1.8,0.9-2.7c0.9-0.9,1.8-0.9,2.7-0.9h7.3c3.6,0,6.4-0.9,9.1-3.6
			c2.7-2.7,3.6-5.5,3.6-9.1c0-1.8,0-3.6-0.9-4.6c-0.9-1.8-1.8-2.7-2.7-4.5c-0.9-0.9-2.7-1.8-4.5-2.7
			C238.3,198.2,236.4,198.2,235.5,198.2L235.5,198.2z M241,211c0,0.9,0,1.8-0.9,2.7c0,0.9-0.9,1.8-0.9,1.8s-0.9,0.9-1.8,0.9
			c-0.9,0-1.8,0.9-2.7,0.9h-10v-12.7h10c0.9,0,1.8,0,2.7,0.9c0.9,0,1.8,0.9,1.8,0.9c0.9,0.9,0.9,0.9,0.9,1.8
			C241,209.1,241,210.1,241,211L241,211z"/>
		<path class="st4" d="M191.9,237.4l-14.6-39.1h8.2l9.1,28.2c0,0.9,0.9,1.8,0.9,2.7l0,0c0-0.9,0-1.8,0.9-2.7l9.1-28.2h8.2
			l-14.6,39.1C199.1,237.4,191.9,237.4,191.9,237.4z"/>
		<path class="st4" d="M251,237.4v-39.1h6.4l18.2,24.6c0.9,0.9,0.9,1.8,1.8,2.7l0,0c0-0.9,0-2.7,0-3.6v-23.7h7.3v39.1h-6.4
			l-18.2-24.6c-0.9-0.9-0.9-1.8-1.8-2.7l0,0c0,0.9,0,2.7,0,3.6v23.7C258.3,237.4,251,237.4,251,237.4z"/>
		<path class="st5" d="M35.3,198.2H17.1v39.1h7.3v-10c0-0.9,0-1.8,0.9-2.7c0.9-0.9,1.8-0.9,2.7-0.9h7.3c3.6,0,6.4-0.9,9.1-3.6
			s3.6-5.5,3.6-9.1c0-1.8,0-3.6-0.9-4.6c-0.9-1.8-1.8-2.7-2.7-4.5c-0.9-0.9-2.7-1.8-4.5-2.7C39,198.2,37.2,198.2,35.3,198.2
			L35.3,198.2z M40.8,211c0,0.9,0,1.8-0.9,2.7c0,0.9-0.9,1.8-0.9,1.8c-0.9,0.9-0.9,0.9-1.8,0.9c-0.9,0-1.8,0.9-2.7,0.9h-10v-12.7h10
			c0.9,0,1.8,0,2.7,0.9c0.9,0,1.8,0.9,1.8,0.9c0.9,0.9,0.9,0.9,0.9,1.8C40.8,209.1,40.8,210.1,40.8,211L40.8,211z"/>
		<path class="st5" d="M49.9,237.4v-15.5c0-6.4,3.6-10.9,10.9-10.9c0.9,0,2.7,0,3.6,0v6.4c-0.9,0-1.8,0-1.8,0
			c-3.6,0-5.5,1.8-5.5,5.5v14.6H49.9z"/>
		<path class="st5" d="M66.3,223.7c0-8.2,5.5-13.7,13.7-13.7s13.7,6.4,13.7,13.7c0,8.2-5.5,13.6-13.7,13.6
			C71.7,237.4,66.3,231.9,66.3,223.7z M87.2,223.7c0-4.6-2.7-7.3-7.3-7.3c-3.6,0-7.3,2.7-7.3,7.3s2.7,7.3,7.3,7.3
			C84.5,231.9,87.2,228.3,87.2,223.7L87.2,223.7z"/>
		<path class="st5" d="M114.5,216.4h-7.3v10c0,3.6,0.9,4.5,4.5,4.5c0,0,0.9,0,1.8,0v5.5c-0.9,0-2.7,0.9-4.5,0.9c-6.4,0-10-3.6-10-10
			v-10.9h-3.6V211h0.9c0.9,0,1.8,0,2.7-0.9s0.9-1.8,0.9-2.7v-5.5h7.3v9.1h7.3C114.5,211,114.5,216.4,114.5,216.4z"/>
		<path class="st5" d="M117.2,223.7c0-8.2,5.5-13.7,13.7-13.7s13.6,6.4,13.6,13.7c0,8.2-5.5,13.6-13.6,13.6S117.2,231.9,117.2,223.7
			z M138.2,223.7c0-4.6-2.7-7.3-7.3-7.3c-3.6,0-7.3,2.7-7.3,7.3s2.7,7.3,7.3,7.3C135.4,231.9,138.2,228.3,138.2,223.7z"/>
		<path class="st5" d="M149.1,237.4v-14.6c0-7.3,4.6-11.8,12.7-11.8c8.2,0,11.8,4.6,11.8,11.8v14.6h-7.3v-14.6
			c0-3.6-1.8-6.4-5.5-6.4s-5.5,2.7-5.5,6.4v14.6H149.1z"/>
	</g>
</g>
</svg>
