<?xml version="1.0" encoding="utf-8"?>
<!-- Generator: Adobe Illustrator 27.8.1, SVG Export Plug-In . SVG Version: 6.00 Build 0)  -->
<svg version="1.1" id="Layer_1" xmlns="http://www.w3.org/2000/svg" xmlns:xlink="http://www.w3.org/1999/xlink" x="0px" y="0px"
	 viewBox="0 0 300 300" style="enable-background:new 0 0 300 300;" xml:space="preserve">
<style type="text/css">
	.st0{fill:#16191C;}
	.st1{fill-rule:evenodd;clip-rule:evenodd;fill:#16191C;}
	.st2{fill:#1EBFBF;}
	.st3{fill:#FFFFFF;}
</style>
<g>
	<g>
		<path class="st0" d="M279.9,228.3c0,5,4,9,9,9s9.1-4.1,9.1-9c0-5-4.1-9.1-9.1-9.1C283.9,219.3,279.9,223.3,279.9,228.3z
			 M281.9,228.3c0-4,3-7.1,6.9-7.1s6.9,3.1,6.9,7.1s-3,7.1-6.9,7.1C285,235.4,281.9,232.3,281.9,228.3z M290.4,233.1h2.6l-2-3.8
			c1.1-0.5,1.9-1.5,1.9-2.8c0-1.8-1.5-3.2-3.4-3.2h-3.9v9.8h2.3v-3.4h0.7L290.4,233.1z M287.9,227.8v-2.5h1.1c0.9,0,1.4,0.5,1.4,1.3
			c0,0.8-0.5,1.3-1.4,1.3h-1.1V227.8z"/>
		<path class="st0" d="M274.6,238.3H263l-11.3,12.2v-31.2h-8.9v51.9h8.9v-8.7l3.7-3.9l8.7,12.5H275l-13.4-19L274.6,238.3z"/>
		<path class="st0" d="M239.5,238.2c-0.7-0.1-1.3,0-2,0c-2.8,0-7.3,0.7-9.2,5v-5h-8.5v32.9h8.8v-15c0-7.1,3.7-9.7,8.2-9.7
			c0.8,0,2.8,0,2.8,0v-8.2H239.5z"/>
		<path class="st0" d="M186,261.5c0,5,4.2,9.6,11.2,9.6c4.8,0,7.9-1.4,9.6-3.9l0.3,3.9h7.7v-5.2v-15.6c0-6.4-3.8-12.1-14.2-12.1
			c-8.7,0-13.4,5.5-14,10.5l7.8,1.6c0.3-2.8,2.4-5.2,6.2-5.2c3.7,0,5.5,1.9,5.5,4.1c0,1.1-0.6,1.2-2.5,1.5l-8,1.2
			C190.3,252.7,186,255.8,186,261.5z M199.1,264.7c-2.8,0-4.2-1.8-4.2-3.7c0-2.5,1.8-3.7,4-4l7.4-1.1v2.2
			C206.2,263.8,202.8,264.7,199.1,264.7z"/>
		<path class="st0" d="M161.9,251.9c0.2-3.6,2.4-6.4,6.1-6.4c4.2,0,6,2.9,6,6.5v19.1h8.8v-20.7c0-7.2-3.8-12.2-12.1-12.2
			c-3.1,0-6.7,0.2-8.8,2.8v-21.7h-8.8v51.9h8.8V251.9z"/>
		<path class="st0" d="M123.5,261.7c0.4,3.6,3.7,9.5,13.6,9.5c8.6,0,12.8-5,12.8-10.1c0-4.6-3.3-8.3-9.7-9.6l-4.7-1
			c-1.8-0.3-3-1.3-3-2.8c0-1.8,1.9-3.1,4.2-3.1c3.7,0,5.1,2.3,5.4,4.2l7.4-1.6c-0.4-3.4-3.5-9-12.8-9c-7.1,0-12.2,4.6-12.2,10.2
			c0,4.4,2.9,8,9.2,9.3l4.3,1c2.5,0.5,3.5,1.6,3.5,3c0,1.6-1.4,3.1-4.3,3.1c-3.9,0-5.8-2.3-6-4.8L123.5,261.7z"/>
		<path class="st1" d="M114.6,232.4v-0.1c0-3,2.4-5.4,5.4-5.4h1.9v-7.6h-4.3c-6.7,0-11.7,5-11.7,12.2v6.8h-5.4v8.2h5.4v24.7h8.8
			v-24.7h7.3v-8.2h-7.3v-5.9C114.6,232.4,114.6,232.4,114.6,232.4z"/>
		<path class="st0" d="M97.1,238.2c-0.7-0.1-1.3,0-2,0c-2.8,0-7.3,0.7-9.2,5v-5h-8.5v32.9h8.8v-15c0-7.1,3.7-9.7,8.2-9.7
			c0.8,0,2.8,0,2.8,0v-8.2H97.1z"/>
		<path class="st0" d="M64.4,271.1h8v-5.9v-27h-8.7v19.2c0,3.8-2.4,5.6-6.2,5.6c-4.1,0-5.9-2.9-5.9-6.6v-18.2h-8.8v20
			c0,7.1,4.5,12.9,12.3,12.9c3.4,0,7.3-0.5,9.1-3.5L64.4,271.1z"/>
		<path class="st0" d="M38.8,232c-1.1-5.5-5.8-12.7-17.9-12.7c-9.4,0-17.4,6.6-17.4,15.3c0,7.4,5.1,12.4,13.1,14l7,1.4
			c3.9,0.8,6.1,3.8,6.1,6.6c0,3.5-2.9,6-8.1,6c-7,0-10.5-4.4-10.9-9.2l-9,2.3c0.8,7,6.6,15.3,19.8,15.3c11.6,0,18-7.6,18-15.1
			c0-6.9-4.9-13.5-13.9-15.3l-7-1.3c-3.7-0.7-5.4-2.8-5.4-5.5c0-3.2,3.1-6.2,7.8-6.2c6.3,0,8.6,4.2,9.1,6.9L38.8,232z"/>
	</g>
	<g>
		<path class="st2" d="M184,28.8c4.1,0.2,8,0.2,11.3,0.7c6.6,1.6,12.9,5.2,16.1,12.3c0,0,0.7,1.3,1.3,5c0.5,3.6,1.3,13.8,1.3,13.8
			c1.1,16.8,1.3,34.3,1.4,51c-0.4,6.4-2.1,12.5-4.8,18.1c-6.8,13.6-19.3,24-28.6,29.5c-23.1,11.6-45.6,22-64.5,30.2
			c-20,7.3-29.1,0-32.2-8.8c-0.5-2.3-0.9-4.8-0.7-7.2c0,0,0.2-5.5,1.6-14.5c1.4-8.9,11.6-73.7,22.5-106.7c2.9-7.7,13.1-22,37.7-23.4
			C146.3,28.8,184,28.8,184,28.8z"/>
		<path class="st3" d="M179.9,59c1.8,0,3.2,1.4,3.2,3.2v11.1c0,1.8-1.4,3.2-3.2,3.2h-1.6c-10.7,0-19.3,8.6-19.3,19.1v17.2
			c0,20.2-16.6,36.7-37.2,36.7h-1.6c-1.8,0-3.2-1.4-3.2-3.2v-11.1c0-1.8,1.4-3.2,3.2-3.2h1.6c10.7,0,19.3-8.6,19.3-19.1V95.6
			c0-20.2,16.6-36.7,37.2-36.7H179.9z"/>
	</g>
</g>
</svg>
